<svg width="134" height="147" viewBox="0 0 134 147" fill="none" xmlns="http://www.w3.org/2000/svg">
<path d="M65.3545 63.7935L109.095 78.0487L118.768 63.6511C120.253 61.4417 119.205 58.4258 116.671 57.6119L80.2754 45.9227C78.5439 45.3666 76.6552 46.0486 75.6783 47.5825L65.3545 63.7935Z" fill="#E9F3FC"/>
<path d="M65.3569 63.8149L21.608 78.0579L11.6869 63.7049C10.1609 61.4972 11.1989 58.4427 13.7542 57.6221L50.1209 45.9422C51.8331 45.3923 53.7018 46.0527 54.6884 47.5562L65.3569 63.8149Z" fill="#CADCF0"/>
<path d="M65.3555 92.3136L109.104 78.0547V117.648C109.104 120.305 107.357 122.645 104.809 123.4L65.3555 135.09V92.3136Z" fill="#A4BBDB"/>
<path d="M65.3555 92.3136L21.6066 78.0547V117.648C21.6066 120.305 23.3544 122.645 25.9021 123.4L65.3555 135.09V92.3136Z" fill="#CADCF0"/>
<path d="M21.6055 78.0482L65.3543 63.7969V92.3146L21.6055 78.0482Z" fill="#A4BBDB"/>
<path d="M109.105 78.0558L65.3566 63.7969V92.3146L109.105 78.0558Z" fill="#CADCF0"/>
<path d="M65.3551 92.3175L109.105 78.0573L119.235 92.4028C120.793 94.6088 119.762 97.6927 117.191 98.5185L80.8458 110.191C79.1489 110.736 77.2961 110.093 76.3023 108.613L65.3551 92.3175Z" fill="#DAEDFF"/>
<path d="M65.353 92.3066L21.608 78.0515L11.6888 92.4038C10.1631 94.6115 11.2012 97.6658 13.7563 98.4864L50.1237 110.166C51.8357 110.716 53.7043 110.056 54.6909 108.553L65.353 92.3066Z" fill="#DAEDFF"/>
<path d="M72.169 21.6664C72.493 25.5551 79.2984 30.4161 72.8171 33.0087C68.3427 33.0087 60.8267 30.4161 61.1508 21.3423C61.4633 12.5925 68.3427 10 72.8171 10C78.0022 11.6203 75.0856 16.8054 72.169 21.6664Z" fill="#CADCF0"/>
<path fill-rule="evenodd" clip-rule="evenodd" d="M60.5117 19.3438C59.4072 19.3438 58.5117 20.2392 58.5117 21.3438C58.5117 22.4483 59.4072 23.3438 60.5117 23.3438H77.6872C78.7918 23.3438 79.6872 22.4483 79.6872 21.3438C79.6872 20.2392 78.7918 19.3438 77.6872 19.3438H60.5117ZM87.7899 19.93C86.3979 19.6481 84.81 19.4994 82.9994 19.5C81.8948 19.5004 80.9996 20.3961 81 21.5007C81.0004 22.6052 81.8961 23.5004 83.0007 23.5C84.5961 23.4995 85.9122 23.631 86.9961 23.8504C88.0787 24.0696 89.134 23.3697 89.3532 22.2871C89.5724 21.2045 88.8725 20.1492 87.7899 19.93ZM95.9223 26.3866C95.5739 25.3384 94.4417 24.7712 93.3935 25.1196C92.3453 25.468 91.7781 26.6002 92.1265 27.6484C92.5216 28.8368 92.5496 30.1184 92.5496 31.3784C92.5496 32.0235 92.3654 32.8487 91.9198 33.8044C91.4532 34.8056 91.8864 35.9955 92.8875 36.4622C93.8887 36.9289 95.0786 36.4956 95.5453 35.4945C96.1706 34.1531 96.5496 32.7474 96.5496 31.3784C96.5496 30.1466 96.5457 28.262 95.9223 26.3866ZM90.834 41.4542C91.6737 40.7366 91.7727 39.4741 91.0551 38.6344C90.3375 37.7947 89.075 37.6957 88.2353 38.4133C86.7905 39.6481 85.0231 40.7704 82.9857 41.629C81.9679 42.058 81.4905 43.2309 81.9195 44.2488C82.3484 45.2667 83.5213 45.744 84.5392 45.3151C86.9596 44.295 89.079 42.954 90.834 41.4542ZM77.4236 47.1598C78.5215 47.0381 79.3128 46.0494 79.1911 44.9516C79.0693 43.8537 78.0807 43.0624 76.9828 43.1841C75.9894 43.2943 74.9592 43.3405 73.8953 43.3129C72.4234 43.2259 70.9877 43.1855 69.5923 43.1905C68.4877 43.1944 67.5955 44.093 67.5995 45.1976C67.6034 46.3022 68.502 47.1944 69.6066 47.1904C70.9249 47.1857 72.2876 47.2242 73.6905 47.3078L73.7226 47.3097L73.7548 47.3106C75.0147 47.345 76.2392 47.2911 77.4236 47.1598ZM61.5478 47.8352C62.6369 47.6511 63.3706 46.619 63.1866 45.5299C63.0025 44.4407 61.9704 43.707 60.8813 43.8911C57.6642 44.4348 54.7729 45.2937 52.3129 46.4633C51.3153 46.9376 50.8911 48.1307 51.3654 49.1283C51.8397 50.1259 53.0328 50.5501 54.0304 50.0758C56.0894 49.0969 58.6125 48.3312 61.5478 47.8352ZM48.5811 54.6383C49.1337 53.6819 48.8064 52.4586 47.85 51.906C46.8936 51.3533 45.6703 51.6807 45.1177 52.637C44.266 54.1111 43.7532 55.7339 43.6212 57.4745C43.5291 58.6877 43.6215 59.9016 43.8503 61.0924C44.0587 62.1771 45.107 62.8875 46.1917 62.6791C47.2765 62.4707 47.9869 61.4224 47.7785 60.3377C47.6067 59.4437 47.5482 58.5881 47.6097 57.7771C47.6957 56.6442 48.025 55.6007 48.5811 54.6383ZM49.783 65.5129C49.2448 64.5483 48.0265 64.2027 47.062 64.741C46.0974 65.2792 45.7518 66.4975 46.29 67.462C47.359 69.3777 48.6596 71.2041 50.0272 72.8597C50.7307 73.7113 51.9913 73.8314 52.8429 73.1279C53.6945 72.4244 53.8146 71.1638 53.1111 70.3122C51.8645 68.8031 50.7111 67.176 49.783 65.5129ZM57.1987 74.5848C56.3783 73.8452 55.1136 73.9108 54.3741 74.7312C53.6345 75.5516 53.7 76.8162 54.5204 77.5558C55.4063 78.3545 56.2679 79.061 57.0652 79.6503C57.9535 80.3069 59.2058 80.119 59.8624 79.2307C60.5189 78.3425 60.3311 77.0901 59.4428 76.4336C58.7625 75.9308 58.0012 75.3082 57.1987 74.5848Z" fill="#347BFA"/>
</svg>
